<svg width="15" height="13" fill="none" xmlns="http://www.w3.org/2000/svg"><path d="M6.79 5.573c0-1.192-.745-1.85-2.001-1.85H3.578v3.751c.348.027.56.046 1.077.046 1.326.027 2.135-.77 2.135-1.947m.205 6.063A22.267 22.267 0 0 1 4.752 8.22H3.596v2.494c0 .926.212 1.12.617 1.178l.775.106v.433c-.369 0-1.238-.046-1.913-.046s-1.401.027-1.804.046v-.433l.56-.106c.388-.073.612-.252.612-1.178v-5.91c-.019-.947-.243-1.11-.633-1.183l-.56-.1v-.436h1.571c.6 0 1.356-.045 2.243-.045 1.683 0 3 .774 3 2.448a2.742 2.742 0 0 1-2.1 2.55 17.838 17.838 0 0 0 2.24 3.165c.364.446.89.73 1.461.79v.388c-.22.082-.455.121-.69.118a2.55 2.55 0 0 1-1.98-.863ZM13.18 1.102C12.918.464 12.343 0 11.48 0a1.784 1.784 0 0 0-1.327.545c-.496.503-.49 1.072-.49 2.059 0 .987-.006 1.553.49 2.055a1.824 1.824 0 0 0 1.326.548c.533 0 1.008-.173 1.393-.581.333-.363.454-.787.454-1.447v-.784h-1.75v.663h.98v.287c0 .33-.069.59-.253.806a1.068 1.068 0 0 1-.824.36 1.003 1.003 0 0 1-.744-.309c-.249-.272-.306-.569-.306-1.595s.06-1.317.306-1.59A1.014 1.014 0 0 1 11.479.7c.494 0 .839.251 1.005.687l.697-.285Z" fill="#777"/></svg>